<svg width="20" height="20" viewBox="0 0 20 20" fill="none" xmlns="http://www.w3.org/2000/svg">
<g clip-path="url(#clip0_56_355)">
<mask id="path-1-outside-1_56_355" maskUnits="userSpaceOnUse" x="0" y="0" width="20" height="20" fill="black">
<rect fill="white" width="20" height="20"/>
<path fill-rule="evenodd" clip-rule="evenodd" d="M3 1C1.89543 1 1 1.89543 1 3V17C1 18.1046 1.89543 19 3 19H17C18.1046 19 19 18.1046 19 17V3C19 1.89543 18.1046 1 17 1H3ZM9.25723 13.7278L16.6858 6.72779L15.3142 5.27221L8.57143 11.626L4.6858 7.96452L3.3142 9.4201L7.88563 13.7278L8.57143 14.374L9.25723 13.7278Z"/>
</mask>
<path fill-rule="evenodd" clip-rule="evenodd" d="M3 1C1.89543 1 1 1.89543 1 3V17C1 18.1046 1.89543 19 3 19H17C18.1046 19 19 18.1046 19 17V3C19 1.89543 18.1046 1 17 1H3ZM9.25723 13.7278L16.6858 6.72779L15.3142 5.27221L8.57143 11.626L4.6858 7.96452L3.3142 9.4201L7.88563 13.7278L8.57143 14.374L9.25723 13.7278Z" fill="#323234"/>
<path d="M16.6858 6.72779L17.3716 7.45558L18.0994 6.76978L17.4136 6.04199L16.6858 6.72779ZM9.25723 13.7278L8.57143 13H8.57143L9.25723 13.7278ZM15.3142 5.27221L16.042 4.58641L15.3562 3.85862L14.6284 4.54442L15.3142 5.27221ZM8.57143 11.626L7.88563 12.3538L8.57143 13L9.25723 12.3538L8.57143 11.626ZM4.6858 7.96452L5.3716 7.23673L4.64381 6.55093L3.95801 7.27872L4.6858 7.96452ZM3.3142 9.4201L2.58641 8.7343L1.90061 9.46209L2.6284 10.1479L3.3142 9.4201ZM7.88563 13.7278L8.57143 13H8.57143L7.88563 13.7278ZM8.57143 14.374L7.88563 15.1018L8.57143 15.7481L9.25723 15.1018L8.57143 14.374ZM2 3C2 2.44772 2.44772 2 3 2V0C1.34315 0 0 1.34315 0 3H2ZM2 17V3H0V17H2ZM3 18C2.44771 18 2 17.5523 2 17H0C0 18.6569 1.34315 20 3 20V18ZM17 18H3V20H17V18ZM18 17C18 17.5523 17.5523 18 17 18V20C18.6569 20 20 18.6569 20 17H18ZM18 3V17H20V3H18ZM17 2C17.5523 2 18 2.44772 18 3H20C20 1.34315 18.6569 0 17 0V2ZM3 2H17V0H3V2ZM16 6L8.57143 13L9.94303 14.4556L17.3716 7.45558L16 6ZM14.5864 5.95801L15.958 7.41359L17.4136 6.04199L16.042 4.58641L14.5864 5.95801ZM9.25723 12.3538L16 6L14.6284 4.54442L7.88563 10.8982L9.25723 12.3538ZM4 8.69231L7.88563 12.3538L9.25723 10.8982L5.3716 7.23673L4 8.69231ZM4.04199 10.1059L5.41359 8.65032L3.95801 7.27872L2.58641 8.7343L4.04199 10.1059ZM8.57143 13L4 8.69231L2.6284 10.1479L7.19983 14.4556L8.57143 13ZM9.25723 13.6462L8.57143 13L7.19983 14.4556L7.88563 15.1018L9.25723 13.6462ZM8.57143 13L7.88563 13.6462L9.25723 15.1018L9.94303 14.4556L8.57143 13Z" fill="#4B4B4E" mask="url(#path-1-outside-1_56_355)"/>
<path d="M4 8.69231L8.57143 13L16 6" stroke="#4B4B4E" stroke-width="2"/>
</g>
<defs>
<clipPath id="clip0_56_355">
<rect width="20" height="20" fill="white"/>
</clipPath>
</defs>
</svg>
