<svg width="20" height="20" viewBox="0 0 20 20" fill="none" xmlns="http://www.w3.org/2000/svg">
<g clip-path="url(#clip0_56_741)">
<mask id="path-1-outside-1_56_741" maskUnits="userSpaceOnUse" x="0" y="0" width="20" height="20" fill="black">
<rect fill="white" width="20" height="20"/>
<path d="M1 3C1 1.89543 1.89543 1 3 1H17C18.1046 1 19 1.89543 19 3V17C19 18.1046 18.1046 19 17 19H3C1.89543 19 1 18.1046 1 17V3Z"/>
</mask>
<path d="M1 3C1 1.89543 1.89543 1 3 1H17C18.1046 1 19 1.89543 19 3V17C19 18.1046 18.1046 19 17 19H3C1.89543 19 1 18.1046 1 17V3Z" fill="#323234"/>
<path d="M3 2H17V0H3V2ZM18 3V17H20V3H18ZM17 18H3V20H17V18ZM2 17V3H0V17H2ZM3 18C2.44772 18 2 17.5523 2 17H0C0 18.6569 1.34315 20 3 20V18ZM18 17C18 17.5523 17.5523 18 17 18V20C18.6569 20 20 18.6569 20 17H18ZM17 2C17.5523 2 18 2.44772 18 3H20C20 1.34315 18.6569 0 17 0V2ZM3 0C1.34315 0 0 1.34315 0 3H2C2 2.44772 2.44772 2 3 2V0Z" fill="#4B4B4E" mask="url(#path-1-outside-1_56_741)"/>
<path d="M4 8.69231L8.57143 13L16 6" stroke="white" stroke-width="2"/>
</g>
<defs>
<clipPath id="clip0_56_741">
<rect width="20" height="20" fill="white"/>
</clipPath>
</defs>
</svg>
