<svg width="16" height="16" viewBox="0 0 16 16" fill="none" xmlns="http://www.w3.org/2000/svg">
<path d="M9.99995 0.769603C9.36325 0.593878 8.69259 0.5 8 0.5C3.85786 0.5 0.5 3.85786 0.5 8C0.5 12.1421 3.85786 15.5 8 15.5C12.1421 15.5 15.5 12.1421 15.5 8C15.5 7.3074 15.4061 6.63672 15.2304 6H14.1865C14.39 6.63006 14.5 7.30219 14.5 8C14.5 11.5899 11.5899 14.5 8 14.5C4.41015 14.5 1.5 11.5899 1.5 8C1.5 4.41015 4.41015 1.5 8 1.5C8.69779 1.5 9.3699 1.60996 9.99995 1.81348V0.769603Z" fill="white"/>
<path d="M9.74692 2.78323C9.19808 2.59952 8.61066 2.5 8 2.5C4.96243 2.5 2.5 4.96243 2.5 8C2.5 11.0376 4.96243 13.5 8 13.5C11.0376 13.5 13.5 11.0376 13.5 8C13.5 7.30357 13.3706 6.63737 13.1344 6.02415L12.2951 6.65362C12.4282 7.07874 12.5 7.53099 12.5 8C12.5 10.4853 10.4853 12.5 8 12.5C5.51472 12.5 3.5 10.4853 3.5 8C3.5 5.51472 5.51472 3.5 8 3.5C8.42172 3.5 8.82989 3.55801 9.21697 3.66649L9.74692 2.78323Z" fill="white"/>
<path d="M8.67754 4.56553C8.45834 4.52253 8.2318 4.5 8 4.5C6.067 4.5 4.5 6.067 4.5 8C4.5 9.933 6.067 11.5 8 11.5C9.933 11.5 11.5 9.933 11.5 8C11.5 7.76103 11.4761 7.52766 11.4304 7.30215L11.3284 7.37868L10.4908 8.21629C10.3811 9.49573 9.30785 10.5 8 10.5C6.61929 10.5 5.5 9.38071 5.5 8C5.5 6.69219 6.50422 5.61892 7.78362 5.50923L8.60288 4.68997L8.67754 4.56553Z" fill="white"/>
<path d="M8.06066 7.94872C7.8654 7.75346 7.8654 7.43688 8.06066 7.24161L11.5338 3.76848L11.5766 2.68698C11.5865 2.43563 11.6908 2.19726 11.8687 2.01939L13.888 2.98375e-05L14.1834 1.82603L16.0094 2.12135L13.99 4.14071C13.8121 4.31858 13.5738 4.42288 13.3224 4.43282L12.2409 4.47559L8.76777 7.94872C8.57251 8.14398 8.25592 8.14398 8.06066 7.94872Z" fill="white"/>
</svg>
