<svg width="16" height="16" viewBox="0 0 16 16" fill="none" xmlns="http://www.w3.org/2000/svg">
<g clip-path="url(#clip0_53_1232)">
<path d="M3.5 9.5C3.10218 9.5 2.72064 9.34196 2.43934 9.06066C2.15804 8.77936 2 8.39782 2 8C2 7.60218 2.15804 7.22064 2.43934 6.93934C2.72064 6.65804 3.10218 6.5 3.5 6.5C3.89782 6.5 4.27936 6.65804 4.56066 6.93934C4.84196 7.22064 5 7.60218 5 8C5 8.39782 4.84196 8.77936 4.56066 9.06066C4.27936 9.34196 3.89782 9.5 3.5 9.5Z" fill="white"/>
<path d="M8 9.5C7.60218 9.5 7.22064 9.34196 6.93934 9.06066C6.65804 8.77936 6.5 8.39782 6.5 8C6.5 7.60218 6.65804 7.22064 6.93934 6.93934C7.22064 6.65804 7.60218 6.5 8 6.5C8.39782 6.5 8.77936 6.65804 9.06066 6.93934C9.34196 7.22064 9.5 7.60218 9.5 8C9.5 8.39782 9.34196 8.77936 9.06066 9.06066C8.77936 9.34196 8.39782 9.5 8 9.5Z" fill="white"/>
<path d="M12.5 9.5C12.1022 9.5 11.7206 9.34196 11.4393 9.06066C11.158 8.77936 11 8.39782 11 8C11 7.60218 11.158 7.22064 11.4393 6.93934C11.7206 6.65804 12.1022 6.5 12.5 6.5C12.8978 6.5 13.2794 6.65804 13.5607 6.93934C13.842 7.22064 14 7.60218 14 8C14 8.39782 13.842 8.77936 13.5607 9.06066C13.2794 9.34196 12.8978 9.5 12.5 9.5Z" fill="white"/>
</g>
<defs>
<clipPath id="clip0_53_1232">
<rect width="16" height="16" fill="white"/>
</clipPath>
</defs>
</svg>
