<svg width="48" height="48" viewBox="0 0 48 48" fill="none" xmlns="http://www.w3.org/2000/svg">
<path d="M15.2339 1H30.7856L45.8003 16.0137V41.751C45.8003 44.5917 43.3215 46.9999 40.1284 47H15.0845C11.8772 47 9.3999 44.5906 9.3999 41.751V6.24902L9.40771 5.98633C9.56302 3.28669 12.098 1 15.2339 1Z" stroke="#646468" stroke-width="2"/>
<path d="M30.0359 11.424V0L46.8 16.8H35.6239C30.5947 16.8 29.8031 13.216 30.0359 11.424Z" fill="#646468"/>
<rect x="1" y="24" width="28" height="15" rx="3" fill="#D151FB"/>
<path d="M5.34961 28.3184H6.98438L8.75098 32.6338H8.82129L10.5879 28.3184H12.2227V34.6816H10.9395V30.5156H10.8867L9.22559 34.6553H8.34668L6.68555 30.498H6.63281V34.6816H5.34961V28.3184Z" fill="white"/>
<path d="M18.7221 31.5C18.7221 33.5786 17.4345 34.7695 15.7514 34.7695C14.0551 34.7695 12.7719 33.5698 12.7719 31.5C12.7719 29.4214 14.0551 28.2305 15.7514 28.2305C17.4345 28.2305 18.7221 29.4214 18.7221 31.5ZM14.1166 31.5C14.1166 32.8579 14.7626 33.5962 15.7514 33.6006C16.7313 33.5962 17.3817 32.8579 17.3773 31.5C17.3817 30.1377 16.7313 29.4038 15.7514 29.3994C14.7626 29.4038 14.1166 30.1377 14.1166 31.5Z" fill="white"/>
<path d="M20.0271 28.3184L21.574 33.1699H21.6355L23.1912 28.3184H24.6502L22.4529 34.6816H20.7566L18.5506 28.3184H20.0271Z" fill="white"/>
</svg>
