<svg width="48" height="48" viewBox="0 0 48 48" fill="none" xmlns="http://www.w3.org/2000/svg">
<path d="M15.2339 1H30.7856L45.8003 16.0137V41.751C45.8003 44.5917 43.3215 46.9999 40.1284 47H15.0845C11.8772 47 9.3999 44.5906 9.3999 41.751V6.24902L9.40771 5.98633C9.56302 3.28669 12.098 1 15.2339 1Z" stroke="#646468" stroke-width="2"/>
<path d="M30.0359 11.424V0L46.8 16.8H35.6239C30.5947 16.8 29.8031 13.216 30.0359 11.424Z" fill="#646468"/>
<rect x="1" y="24" width="28" height="15" rx="3" fill="#406CFF"/>
<path d="M18.8667 33.6948V32.6892L21.8505 28H23.3949V32.6602H24.3005V33.6948H23.3949V35H22.2128V33.6948H18.8667ZM20.1346 32.6602H22.2318V29.4309H22.1556L20.1346 32.6119V32.6602Z" fill="white"/>
<path d="M13.645 34.6816V28.3184H16.1411C17.5869 28.3184 18.4175 29.2104 18.4175 30.4629C18.4175 31.7329 17.5737 32.6074 16.106 32.6074H14.9634V34.6816H13.645ZM14.9634 31.5439H15.895C16.6772 31.5439 17.0596 31.1045 17.0552 30.4629C17.0596 29.8301 16.6772 29.4038 15.895 29.3994H14.9634V31.5439Z" fill="white"/>
<path d="M5.69971 28.3184H7.33447L9.10107 32.6338H9.17139L10.938 28.3184H12.5728V34.6816H11.2896V30.5156H11.2368L9.57568 34.6553H8.69678L7.03564 30.498H6.98291V34.6816H5.69971V28.3184Z" fill="white"/>
</svg>
