<svg width="48" height="48" viewBox="0 0 48 48" fill="none" xmlns="http://www.w3.org/2000/svg">
<path d="M15.2339 1H30.7856L45.8003 16.0137V41.751C45.8003 44.5917 43.3215 46.9999 40.1284 47H15.0845C11.8772 47 9.3999 44.5906 9.3999 41.751V6.24902L9.40771 5.98633C9.56302 3.28669 12.098 1 15.2339 1Z" stroke="#646468" stroke-width="2"/>
<path d="M30.0359 11.424V0L46.8 16.8H35.6239C30.5947 16.8 29.8031 13.216 30.0359 11.424Z" fill="#646468"/>
<rect x="1" y="24" width="28" height="15" rx="3" fill="#6A51FB"/>
<path d="M21.7061 34.7695C20.3086 34.7695 19.3066 34.0005 19.2803 32.8887H20.6162C20.6382 33.3633 21.0996 33.6753 21.7148 33.6797C22.3477 33.6753 22.8003 33.3237 22.7959 32.8096C22.8003 32.291 22.3389 31.9263 21.5918 31.9219H21.0029V30.9463H21.5918C22.2202 30.9463 22.6597 30.6035 22.6553 30.1025C22.6597 29.6147 22.2861 29.2808 21.7236 29.2852C21.1611 29.2808 20.6997 29.5972 20.6777 30.085H19.4121C19.4341 28.9907 20.4185 28.2305 21.7236 28.2305C23.0508 28.2305 23.9341 29.0171 23.9297 30.0234C23.9341 30.7354 23.4375 31.2407 22.7256 31.3682V31.4209C23.6616 31.5352 24.1758 32.1021 24.167 32.8975C24.1758 33.9873 23.1431 34.7695 21.7061 34.7695Z" fill="white"/>
<path d="M13.7783 34.6816V28.3184H16.2744C17.7202 28.3184 18.5508 29.2104 18.5508 30.4629C18.5508 31.7329 17.707 32.6074 16.2393 32.6074H15.0967V34.6816H13.7783ZM15.0967 31.5439H16.0283C16.8105 31.5439 17.1929 31.1045 17.1885 30.4629C17.1929 29.8301 16.8105 29.4038 16.0283 29.3994H15.0967V31.5439Z" fill="white"/>
<path d="M5.83301 28.3184H7.46777L9.23438 32.6338H9.30469L11.0713 28.3184H12.7061V34.6816H11.4229V30.5156H11.3701L9.70898 34.6553H8.83008L7.16895 30.498H7.11621V34.6816H5.83301V28.3184Z" fill="white"/>
</svg>
