<svg width="32" height="32" viewBox="0 0 32 32" fill="none" xmlns="http://www.w3.org/2000/svg">
<g id="upload_3917769 1" clip-path="url(#clip0_314_3770)">
<g id="Group">
<path id="Vector" d="M10.3473 8.86764L14.0551 5.15849L14.0831 23.3337C14.0831 24.4382 14.9785 25.3336 16.0831 25.3336C17.1876 25.3336 18.083 24.4382 18.083 23.3337L18.055 5.18118L21.7415 8.8677C22.5088 9.66217 23.7749 9.68417 24.5694 8.91683C25.3638 8.14949 25.3858 6.88342 24.6185 6.08895C24.6024 6.07226 24.586 6.05589 24.5694 6.03983L20.2869 1.75732C17.9439 -0.585764 14.145 -0.585764 11.8019 1.75726L11.8019 1.75732L7.51943 6.03976C6.75209 6.83423 6.77409 8.1003 7.56855 8.86764C8.34358 9.61617 9.57228 9.61617 10.3473 8.86764Z" fill="url(#paint0_linear_314_3770)"/>
<path id="Vector_2" d="M29.9997 19.334C28.8952 19.334 27.9998 20.2294 27.9998 21.3339V27.4549C27.999 27.7558 27.7553 27.9995 27.4545 28.0002H4.54609C4.24523 27.9995 4.00149 27.7558 4.0008 27.4549V21.3339C4.0008 20.2294 3.10541 19.334 2.00089 19.334C0.896375 19.334 0.000976562 20.2294 0.000976562 21.3339V27.4549C0.00391394 29.964 2.03714 31.9971 4.54609 32.0001H27.4544C29.9634 31.9971 31.9966 29.9639 31.9995 27.4549V21.3339C31.9996 20.2294 31.1042 19.334 29.9997 19.334Z" fill="url(#paint1_linear_314_3770)"/>
</g>
</g>
<defs>
<linearGradient id="paint0_linear_314_3770" x1="16.069" y1="0" x2="16.069" y2="25.3336" gradientUnits="userSpaceOnUse">
<stop stop-color="#7844F6"/>
<stop offset="1" stop-color="#6224F5"/>
</linearGradient>
<linearGradient id="paint1_linear_314_3770" x1="16.0003" y1="19.334" x2="16.0003" y2="32.0001" gradientUnits="userSpaceOnUse">
<stop stop-color="#7844F6"/>
<stop offset="1" stop-color="#6224F5"/>
</linearGradient>
<clipPath id="clip0_314_3770">
<rect width="32" height="32" fill="white"/>
</clipPath>
</defs>
</svg>
