<svg width="24" height="24" viewBox="0 0 24 24" fill="none" xmlns="http://www.w3.org/2000/svg">
<g clip-path="url(#clip0_368_2037)">
<path d="M12 7.20165C14.5091 7.20165 16.5455 9.15745 16.5455 11.5673C16.5455 12.0126 16.4545 12.4404 16.3273 12.842L19.1091 15.5138C20.3727 14.4399 21.3727 13.0952 22 11.5585C20.4273 7.73426 16.5455 5.01884 12 5.01884C10.8455 5.01884 9.73636 5.19347 8.69091 5.51652L10.6636 7.4112C11.0909 7.28896 11.5364 7.20165 12 7.20165ZM3.55455 4.28542C3.2 4.62594 3.2 5.176 3.55455 5.51652L5.34545 7.23658C3.87273 8.36291 2.7 9.84722 2 11.5673C3.57273 15.4003 7.45455 18.1157 12 18.1157C13.3818 18.1157 14.7 17.8538 15.9182 17.3997L18.3909 19.7746C18.7455 20.1152 19.3182 20.1152 19.6727 19.7746C20.0273 19.4341 20.0273 18.8841 19.6727 18.5435L4.84545 4.28542C4.49091 3.9449 3.90909 3.9449 3.55455 4.28542ZM12 15.9329C9.49091 15.9329 7.45455 13.9771 7.45455 11.5673C7.45455 10.895 7.61818 10.2576 7.9 9.69879L9.32727 11.0696C9.3 11.2268 9.27273 11.3926 9.27273 11.5673C9.27273 13.0167 10.4909 14.1866 12 14.1866C12.1818 14.1866 12.3455 14.1605 12.5182 14.1255L13.9455 15.4963C13.3545 15.7757 12.7 15.9329 12 15.9329ZM14.7 11.2791C14.5636 10.0568 13.5636 9.10506 12.3 8.97409L14.7 11.2791Z" fill="#4B4B4E"/>
</g>
<defs>
<clipPath id="clip0_368_2037">
<rect width="24" height="24" fill="white"/>
</clipPath>
</defs>
</svg>
