<svg width="48" height="48" viewBox="0 0 48 48" fill="none" xmlns="http://www.w3.org/2000/svg">
<path d="M15.2339 1H30.7856L45.8003 16.0137V41.751C45.8003 44.5917 43.3215 46.9999 40.1284 47H15.0845C11.8772 47 9.3999 44.5906 9.3999 41.751V6.24902L9.40771 5.98633C9.56302 3.28669 12.098 1 15.2339 1Z" stroke="#646468" stroke-width="2"/>
<path d="M30.0359 11.424V0L46.8 16.8H35.6239C30.5947 16.8 29.8031 13.216 30.0359 11.424Z" fill="#646468"/>
<rect x="1" y="24" width="29" height="15" rx="3" fill="#838287"/>
<path d="M20.958 28.3184L22.5049 33.1699H22.5664L24.1221 28.3184H25.5811L23.3838 34.6816H21.6875L19.4814 28.3184H20.958Z" fill="white"/>
<path d="M15.2275 34.6816H13.8037L16.0098 28.3184H17.7061L19.9033 34.6816H18.4883L18.0093 33.2139H15.7065L15.2275 34.6816ZM16.0405 32.1855H17.6753L16.8799 29.751H16.8359L16.0405 32.1855Z" fill="white"/>
<path d="M7.23828 34.6816L5.41895 28.3184H6.86035L7.93262 32.7656H7.98535L9.1543 28.3184H10.3936L11.5625 32.7744H11.6152L12.6875 28.3184H14.1289L12.3096 34.6816H11.0176L9.80469 30.4805H9.75195L8.53027 34.6816H7.23828Z" fill="white"/>
</svg>
