<svg width="251" height="37" viewBox="0 0 251 37" fill="none" xmlns="http://www.w3.org/2000/svg">
<path d="M214.141 17V4.27344H219.204C222.007 4.27344 223.431 5.62695 223.422 7.54297C223.431 9.03711 222.447 9.97754 221.137 10.2676V10.3906C222.57 10.4609 223.923 11.6035 223.932 13.4844C223.923 15.5059 222.412 17 219.538 17H214.141ZM216.778 14.8203H219.01C220.54 14.8291 221.199 14.1963 221.19 13.2383C221.199 12.166 220.381 11.4102 219.081 11.4102H216.778V14.8203ZM216.778 9.59961H218.817C219.924 9.6084 220.759 8.98438 220.751 7.96484C220.759 7.04199 220.074 6.41797 218.87 6.41797H216.778V9.59961ZM225.532 17L225.514 15.084L230.085 10.8828C231.271 9.74902 231.913 9.0459 231.913 8.03516C231.913 6.90137 231.06 6.19824 229.891 6.20703C228.696 6.19824 227.914 6.9541 227.922 8.17578H225.409C225.4 5.68848 227.246 4.09766 229.926 4.09766C232.651 4.09766 234.462 5.65332 234.462 7.85938C234.462 9.30957 233.758 10.4961 231.139 12.8691L229.206 14.75V14.8203H234.637V17H225.532ZM236.589 17V4.27344H241.651C244.455 4.27344 245.879 5.62695 245.87 7.54297C245.879 9.03711 244.894 9.97754 243.585 10.2676V10.3906C245.017 10.4609 246.371 11.6035 246.38 13.4844C246.371 15.5059 244.859 17 241.985 17H236.589ZM239.225 14.8203H241.458C242.987 14.8291 243.646 14.1963 243.637 13.2383C243.646 12.166 242.829 11.4102 241.528 11.4102H239.225V14.8203ZM239.225 9.59961H241.264C242.372 9.6084 243.207 8.98438 243.198 7.96484C243.207 7.04199 242.521 6.41797 241.317 6.41797H239.225V9.59961Z" fill="#9389FC"/>
<g clip-path="url(#clip0_19_94)">
<path d="M67.9272 23.816L57.0839 2.56738H51.3703V34.4836H56.2186V10.9535L66.0483 29.9256H69.801L79.5897 10.9076V34.4836H84.438V2.56738H78.7194L67.9272 23.816Z" fill="white"/>
<path d="M105.797 23.5404C105.797 25.9138 105.219 27.736 104.062 29.012C102.905 30.288 101.425 30.9261 99.6229 30.9261C96.0238 30.9261 94.2268 28.7364 94.2268 24.3621V11.8672H89.3785V24.8623C89.3785 28.2362 90.1618 30.7729 91.7335 32.4777C93.3052 34.1825 95.4606 35.0298 98.2047 35.0298C99.971 35.0298 101.538 34.6266 102.894 33.8201C104.251 33.0137 105.28 31.9112 105.981 30.5126L106.345 34.4786H110.645V11.8672H105.797V23.5404Z" fill="white"/>
<path d="M128.344 11.321C126.578 11.321 125.011 11.7242 123.654 12.5307C122.298 13.3372 121.269 14.4397 120.567 15.8382L120.204 11.8723H115.903V34.4888H120.752V22.8156C120.752 20.4421 121.34 18.62 122.513 17.3439C123.685 16.0679 125.175 15.4299 126.972 15.4299C130.571 15.4299 132.368 17.6195 132.368 21.9938V34.4888H137.17V21.4936C137.17 18.1197 136.387 15.583 134.815 13.8782C133.243 12.1734 131.088 11.3261 128.344 11.3261V11.321Z" fill="white"/>
<path d="M157.935 23.5404C157.935 25.9138 157.357 27.736 156.2 29.012C155.043 30.288 153.563 30.9261 151.761 30.9261C148.162 30.9261 146.365 28.7364 146.365 24.3621V11.8672H141.517V24.8623C141.517 28.2362 142.3 30.7729 143.872 32.4777C145.444 34.1825 147.599 35.0298 150.343 35.0298C152.109 35.0298 153.676 34.6266 155.033 33.8201C156.389 33.0137 157.418 31.9112 158.12 30.5126L158.483 34.4786H162.784V11.8672H157.935V23.5404Z" fill="white"/>
<path d="M175.132 6.11987H170.878L170.284 11.8671H166.398V15.925H170.284V27.0979C170.284 29.8644 170.939 31.7887 172.25 32.8656C173.561 33.9477 175.327 34.4836 177.554 34.4836H181.307V30.3799H178.701C177.39 30.3799 176.468 30.1451 175.931 29.6755C175.398 29.206 175.132 28.3485 175.132 27.0979V15.925H181.537V11.8671H175.132V6.11987Z" fill="white"/>
<path d="M205.318 16.7467C204.401 15.1032 203.121 13.7914 201.478 12.8012C199.829 11.811 197.894 11.321 195.667 11.321C193.44 11.321 191.377 11.8212 189.652 12.8267C187.926 13.8323 186.585 15.2308 185.627 17.0224C184.665 18.8139 184.189 20.8964 184.189 23.2698C184.189 25.6433 184.675 27.6645 185.653 29.4254C186.631 31.1864 187.977 32.5645 189.703 33.5496C191.423 34.5398 193.399 35.0298 195.626 35.0298C198.309 35.0298 200.556 34.3152 202.374 32.8861C204.186 31.4569 205.4 29.6807 206.009 27.5522H201.16C200.705 28.619 200.009 29.4612 199.077 30.0839C198.145 30.7066 196.998 31.0179 195.626 31.0179C193.916 31.0179 192.416 30.4463 191.121 29.308C189.826 28.1698 189.099 26.5059 188.95 24.3162H206.603C206.633 23.8925 206.654 23.5046 206.669 23.1524C206.685 22.8054 206.69 22.4787 206.69 22.1724C206.69 20.1971 206.234 18.3852 205.318 16.7467ZM189.037 21.0342C189.314 19.1202 190.071 17.6808 191.326 16.7263C192.575 15.7667 194.008 15.292 195.626 15.292C197.362 15.292 198.811 15.8076 199.973 16.8437C201.13 17.8799 201.754 19.2784 201.846 21.0393H189.042L189.037 21.0342Z" fill="white"/>
<path d="M29.7502 0.65844L18.4358 8.13602L8.10437 1.30667C7.24427 0.735002 6.24595 0.433857 5.22714 0.433857C2.34479 0.433857 0 2.77156 0 5.6452V31.3497C0 34.2233 2.34479 36.5559 5.22714 36.5559C6.24595 36.5559 7.23915 36.2548 8.10437 35.6831L18.4358 28.8589L29.7553 36.3365C32.356 38.0566 35.8323 36.1936 35.8323 33.0851V3.90978C35.8323 0.796252 32.356 -1.06166 29.7553 0.65844H29.7502ZM26.3558 21.0291L6.90126 33.8814C6.36882 34.2336 5.7903 34.3918 5.22714 34.3918C3.64518 34.3918 2.17584 33.1362 2.17584 31.3497V5.6452C2.17584 3.85874 3.64518 2.60312 5.22714 2.60312C5.7903 2.60312 6.36882 2.76135 6.90126 3.11354L26.3507 15.9658C28.1682 17.1653 28.1682 19.8245 26.3507 21.024L26.3558 21.0291Z" fill="white"/>
<path d="M8.41668 8.11049L5.04285 5.87997V31.12L8.41668 28.8895L21.4052 20.3094L24.1391 18.5025L21.4052 16.6957L8.41668 8.11049ZM7.21357 27.0826V9.91736L20.2021 18.4974L7.21357 27.0826Z" fill="white"/>
<path d="M9.73753 14.7714V22.2235L15.3742 18.4975L9.73753 14.7714Z" fill="white"/>
</g>
<defs>
<clipPath id="clip0_19_94">
<rect width="206.69" height="37" fill="white"/>
</clipPath>
</defs>
</svg>
